<svg xmlns="http://www.w3.org/2000/svg" viewBox="0 0 48 48" width="48" height="48">
  <path d="M42,20V12h-4v-4H10v4H6v8H42z M12,14h24v14H12V14z M38,20h-4v-4h4V20z" fill="#f07014"/>
  <path d="M12,32v8c0,1.1,0.9,2,2,2h20c1.1,0,2-0.9,2-2v-8" fill="#f07014"/>
  <circle cx="16" cy="40" r="2" fill="#4a3028"/>
  <circle cx="32" cy="40" r="2" fill="#4a3028"/>
  <path d="M12,28c0,1.1,0.9,2,2,2h20c1.1,0,2-0.9,2-2V16H12V28z" fill="#fff"/>
  <path d="M16,16c-1.1,0-2,0.9-2,2v4c0,1.1,0.9,2,2,2h4c1.1,0,2-0.9,2-2v-4c0-1.1-0.9-2-2-2H16z" fill="#f07014"/>
  <rect x="22" y="16" width="2" height="12" fill="#f07014"/>
  <rect x="26" y="16" width="6" height="12" fill="#4a3028"/>
  <rect x="14" y="28" width="20" height="2" fill="#4a3028"/>
  <circle cx="10" cy="18" r="1.5" fill="#fff"/>
  <circle cx="38" cy="18" r="1.5" fill="#fff"/>
</svg>
