<svg xmlns="http://www.w3.org/2000/svg" viewBox="0 0 48 48" width="48" height="48">
  <path d="M24,4L4,16h40L24,4z M24,8l16,9.6H8L24,8z" fill="#f07014"/>
  <path d="M4,16v24c0,2.2,1.8,4,4,4h32c2.2,0,4-1.8,4-4V16" fill="#f07014"/>
  <path d="M8,16v24h32V16" fill="#fff"/>
  <path d="M24,4L4,16H12v24h24V16h8L24,4z" fill="none" stroke="#f07014" stroke-width="2"/>
  <path d="M12,16v16l4-2l4,2v-16" fill="#f07014"/>
  <path d="M28,16v16l4-2l4,2v-16" fill="#f07014"/>
  <rect x="18" y="32" width="12" height="8" rx="2" fill="#4a3028"/>
  <path d="M18,34h12c1.1,0,2,0.9,2,2v4h-16v-4C16,34.9,16.9,34,18,34z" fill="#f07014"/>
  <rect x="23" y="28" width="2" height="4" fill="#4a3028"/>
</svg>
